<mxfile host="Electron" modified="2024-10-18T00:15:37.294Z" agent="Mozilla/5.0 (Windows NT 10.0; Win64; x64) AppleWebKit/537.36 (KHTML, like Gecko) draw.io/21.6.8 Chrome/114.0.5735.289 Electron/25.5.0 Safari/537.36" etag="ytrLFAG_DkYNML5qYkxA" version="21.6.8" type="device">
  <diagram name="Página-1" id="im8wG7Gm6MdAlvL2ZuoW">
    <mxGraphModel dx="978" dy="566" grid="1" gridSize="10" guides="1" tooltips="1" connect="1" arrows="1" fold="1" page="1" pageScale="1" pageWidth="827" pageHeight="1169" math="0" shadow="0">
      <root>
        <mxCell id="0" />
        <mxCell id="1" parent="0" />
        <mxCell id="gItXxxrefPkN_YB63ap3-5" value="" style="group" vertex="1" connectable="0" parent="1">
          <mxGeometry x="40" y="170" width="250" height="180" as="geometry" />
        </mxCell>
        <mxCell id="gItXxxrefPkN_YB63ap3-1" value="" style="verticalAlign=top;align=left;spacingTop=8;spacingLeft=2;spacingRight=12;shape=cube;size=10;direction=south;fontStyle=4;html=1;whiteSpace=wrap;fontFamily=Times New Roman;" vertex="1" parent="gItXxxrefPkN_YB63ap3-5">
          <mxGeometry width="250" height="180" as="geometry" />
        </mxCell>
        <mxCell id="gItXxxrefPkN_YB63ap3-2" value="&amp;lt;&amp;lt;Dispositivo&amp;gt;&amp;gt;" style="text;html=1;strokeColor=none;fillColor=none;align=center;verticalAlign=middle;whiteSpace=wrap;rounded=0;fontFamily=Times New Roman;" vertex="1" parent="gItXxxrefPkN_YB63ap3-5">
          <mxGeometry y="12.857142857142858" width="236.11111111111111" height="25.714285714285715" as="geometry" />
        </mxCell>
        <mxCell id="gItXxxrefPkN_YB63ap3-4" value="ESP32 - Receptor" style="text;html=1;strokeColor=none;fillColor=none;align=center;verticalAlign=middle;whiteSpace=wrap;rounded=0;fontFamily=Times New Roman;fontStyle=1" vertex="1" parent="gItXxxrefPkN_YB63ap3-5">
          <mxGeometry y="38.57142857142858" width="236.11111111111111" height="25.714285714285715" as="geometry" />
        </mxCell>
        <mxCell id="gItXxxrefPkN_YB63ap3-16" value="" style="verticalAlign=top;align=left;spacingTop=8;spacingLeft=2;spacingRight=12;shape=cube;size=10;direction=south;fontStyle=4;html=1;whiteSpace=wrap;fontFamily=Times New Roman;" vertex="1" parent="gItXxxrefPkN_YB63ap3-5">
          <mxGeometry x="50" y="80" width="150" height="70" as="geometry" />
        </mxCell>
        <mxCell id="gItXxxrefPkN_YB63ap3-17" value="&amp;lt;&amp;lt;Artefacto&amp;gt;&amp;gt;" style="text;html=1;strokeColor=none;fillColor=none;align=center;verticalAlign=middle;whiteSpace=wrap;rounded=0;fontFamily=Times New Roman;" vertex="1" parent="gItXxxrefPkN_YB63ap3-5">
          <mxGeometry x="50" y="90" width="140" height="10" as="geometry" />
        </mxCell>
        <mxCell id="gItXxxrefPkN_YB63ap3-18" value="Sistema de Recolección, Procesamiento y Clasificación" style="text;html=1;strokeColor=none;fillColor=none;align=center;verticalAlign=middle;whiteSpace=wrap;rounded=0;fontFamily=Times New Roman;fontStyle=1" vertex="1" parent="gItXxxrefPkN_YB63ap3-5">
          <mxGeometry x="50" y="102" width="141.67" height="38" as="geometry" />
        </mxCell>
        <mxCell id="gItXxxrefPkN_YB63ap3-6" value="" style="group" vertex="1" connectable="0" parent="1">
          <mxGeometry x="414" y="170" width="250" height="180" as="geometry" />
        </mxCell>
        <mxCell id="gItXxxrefPkN_YB63ap3-7" value="" style="verticalAlign=top;align=left;spacingTop=8;spacingLeft=2;spacingRight=12;shape=cube;size=10;direction=south;fontStyle=4;html=1;whiteSpace=wrap;fontFamily=Times New Roman;" vertex="1" parent="gItXxxrefPkN_YB63ap3-6">
          <mxGeometry width="250" height="180" as="geometry" />
        </mxCell>
        <mxCell id="gItXxxrefPkN_YB63ap3-8" value="&amp;lt;&amp;lt;Dispositivo&amp;gt;&amp;gt;" style="text;html=1;strokeColor=none;fillColor=none;align=center;verticalAlign=middle;whiteSpace=wrap;rounded=0;fontFamily=Times New Roman;" vertex="1" parent="gItXxxrefPkN_YB63ap3-6">
          <mxGeometry y="12.857142857142858" width="236.11111111111111" height="25.714285714285715" as="geometry" />
        </mxCell>
        <mxCell id="gItXxxrefPkN_YB63ap3-9" value="ESP32 - Transmisor" style="text;html=1;strokeColor=none;fillColor=none;align=center;verticalAlign=middle;whiteSpace=wrap;rounded=0;fontFamily=Times New Roman;fontStyle=1" vertex="1" parent="gItXxxrefPkN_YB63ap3-6">
          <mxGeometry y="38.57142857142858" width="236.11111111111111" height="25.714285714285715" as="geometry" />
        </mxCell>
        <mxCell id="gItXxxrefPkN_YB63ap3-11" value="" style="group" vertex="1" connectable="0" parent="gItXxxrefPkN_YB63ap3-6">
          <mxGeometry x="43.06" y="80" width="150" height="70" as="geometry" />
        </mxCell>
        <mxCell id="gItXxxrefPkN_YB63ap3-12" value="" style="verticalAlign=top;align=left;spacingTop=8;spacingLeft=2;spacingRight=12;shape=cube;size=10;direction=south;fontStyle=4;html=1;whiteSpace=wrap;fontFamily=Times New Roman;" vertex="1" parent="gItXxxrefPkN_YB63ap3-11">
          <mxGeometry width="150" height="70" as="geometry" />
        </mxCell>
        <mxCell id="gItXxxrefPkN_YB63ap3-13" value="&amp;lt;&amp;lt;Artefacto&amp;gt;&amp;gt;" style="text;html=1;strokeColor=none;fillColor=none;align=center;verticalAlign=middle;whiteSpace=wrap;rounded=0;fontFamily=Times New Roman;" vertex="1" parent="gItXxxrefPkN_YB63ap3-11">
          <mxGeometry y="10" width="140" height="10" as="geometry" />
        </mxCell>
        <mxCell id="gItXxxrefPkN_YB63ap3-14" value="ESP32 CSI Web Collecting Tool" style="text;html=1;strokeColor=none;fillColor=none;align=center;verticalAlign=middle;whiteSpace=wrap;rounded=0;fontFamily=Times New Roman;fontStyle=1" vertex="1" parent="gItXxxrefPkN_YB63ap3-11">
          <mxGeometry y="22" width="141.67" height="38" as="geometry" />
        </mxCell>
        <mxCell id="gItXxxrefPkN_YB63ap3-10" value="" style="endArrow=none;html=1;rounded=0;exitX=0;exitY=0;exitDx=85;exitDy=0;exitPerimeter=0;entryX=0.47;entryY=1;entryDx=0;entryDy=0;entryPerimeter=0;" edge="1" parent="1" source="gItXxxrefPkN_YB63ap3-1" target="gItXxxrefPkN_YB63ap3-7">
          <mxGeometry width="50" height="50" relative="1" as="geometry">
            <mxPoint x="380" y="490" as="sourcePoint" />
            <mxPoint x="430" y="440" as="targetPoint" />
          </mxGeometry>
        </mxCell>
        <mxCell id="gItXxxrefPkN_YB63ap3-15" value="Wi-Fi 802.11n&lt;br style=&quot;font-size: 12px;&quot;&gt;Paquete UDP" style="edgeLabel;html=1;align=center;verticalAlign=middle;resizable=0;points=[];fontFamily=Times New Roman;fontSize=12;" vertex="1" connectable="0" parent="gItXxxrefPkN_YB63ap3-10">
          <mxGeometry x="0.069" y="-2" relative="1" as="geometry">
            <mxPoint x="-6" y="-22" as="offset" />
          </mxGeometry>
        </mxCell>
      </root>
    </mxGraphModel>
  </diagram>
</mxfile>
